<?xml version="1.0" encoding="UTF-8" standalone="no"?>
<!DOCTYPE svg PUBLIC "-//W3C//DTD SVG 1.1//EN"
 "http://www.w3.org/Graphics/SVG/1.1/DTD/svg11.dtd">
<!-- Generated by graphviz version 2.43.0 (0)
 -->
<!-- Title: %3 Pages: 1 -->
<svg width="659pt" height="332pt"
 viewBox="0.00 0.00 658.76 332.00" xmlns="http://www.w3.org/2000/svg" xmlns:xlink="http://www.w3.org/1999/xlink">
<g id="graph0" class="graph" transform="scale(1 1) rotate(0) translate(4 328)">
<title>%3</title>
<polygon fill="white" stroke="transparent" points="-4,4 -4,-328 654.76,-328 654.76,4 -4,4"/>
<!-- [root] aws_iam_user.user (expand) -->
<g id="node1" class="node">
<title>[root] aws_iam_user.user (expand)</title>
<polygon fill="none" stroke="black" points="319.38,-108 169.38,-108 169.38,-72 319.38,-72 319.38,-108"/>
<text text-anchor="middle" x="244.38" y="-86.3" font-family="Times,serif" font-size="14.00">aws_iam_user.user</text>
</g>
<!-- [root] provider[&quot;registry.terraform.io/hashicorp/aws&quot;] -->
<g id="node4" class="node">
<title>[root] provider[&quot;registry.terraform.io/hashicorp/aws&quot;]</title>
<polygon fill="none" stroke="black" points="325.38,-36 0.12,-18 325.38,0 650.65,-18 325.38,-36"/>
<text text-anchor="middle" x="325.38" y="-14.3" font-family="Times,serif" font-size="14.00">provider[&quot;registry.terraform.io/hashicorp/aws&quot;]</text>
</g>
<!-- [root] aws_iam_user.user (expand)&#45;&gt;[root] provider[&quot;registry.terraform.io/hashicorp/aws&quot;] -->
<g id="edge1" class="edge">
<title>[root] aws_iam_user.user (expand)&#45;&gt;[root] provider[&quot;registry.terraform.io/hashicorp/aws&quot;]</title>
<path fill="none" stroke="black" d="M264.4,-71.7C274.81,-62.7 287.66,-51.6 298.88,-41.9"/>
<polygon fill="black" stroke="black" points="301.42,-44.33 306.7,-35.14 296.85,-39.04 301.42,-44.33"/>
</g>
<!-- [root] aws_iam_user_policy.user_policy (expand) -->
<g id="node2" class="node">
<title>[root] aws_iam_user_policy.user_policy (expand)</title>
<polygon fill="none" stroke="black" points="372.88,-180 125.88,-180 125.88,-144 372.88,-144 372.88,-180"/>
<text text-anchor="middle" x="249.38" y="-158.3" font-family="Times,serif" font-size="14.00">aws_iam_user_policy.user_policy</text>
</g>
<!-- [root] aws_iam_user_policy.user_policy (expand)&#45;&gt;[root] aws_iam_user.user (expand) -->
<g id="edge2" class="edge">
<title>[root] aws_iam_user_policy.user_policy (expand)&#45;&gt;[root] aws_iam_user.user (expand)</title>
<path fill="none" stroke="black" d="M248.15,-143.7C247.59,-135.98 246.93,-126.71 246.32,-118.11"/>
<polygon fill="black" stroke="black" points="249.81,-117.83 245.6,-108.1 242.82,-118.33 249.81,-117.83"/>
</g>
<!-- [root] aws_instance.ec2 (expand) -->
<g id="node3" class="node">
<title>[root] aws_instance.ec2 (expand)</title>
<polygon fill="none" stroke="black" points="477.38,-108 337.38,-108 337.38,-72 477.38,-72 477.38,-108"/>
<text text-anchor="middle" x="407.38" y="-86.3" font-family="Times,serif" font-size="14.00">aws_instance.ec2</text>
</g>
<!-- [root] aws_instance.ec2 (expand)&#45;&gt;[root] provider[&quot;registry.terraform.io/hashicorp/aws&quot;] -->
<g id="edge3" class="edge">
<title>[root] aws_instance.ec2 (expand)&#45;&gt;[root] provider[&quot;registry.terraform.io/hashicorp/aws&quot;]</title>
<path fill="none" stroke="black" d="M387.11,-71.7C376.58,-62.7 363.57,-51.6 352.21,-41.9"/>
<polygon fill="black" stroke="black" points="354.17,-38.98 344.29,-35.14 349.63,-44.3 354.17,-38.98"/>
</g>
<!-- [root] provider[&quot;registry.terraform.io/hashicorp/aws&quot;] (close) -->
<g id="node5" class="node">
<title>[root] provider[&quot;registry.terraform.io/hashicorp/aws&quot;] (close)</title>
<ellipse fill="none" stroke="black" cx="325.38" cy="-234" rx="291.65" ry="18"/>
<text text-anchor="middle" x="325.38" y="-230.3" font-family="Times,serif" font-size="14.00">[root] provider[&quot;registry.terraform.io/hashicorp/aws&quot;] (close)</text>
</g>
<!-- [root] provider[&quot;registry.terraform.io/hashicorp/aws&quot;] (close)&#45;&gt;[root] aws_iam_user_policy.user_policy (expand) -->
<g id="edge4" class="edge">
<title>[root] provider[&quot;registry.terraform.io/hashicorp/aws&quot;] (close)&#45;&gt;[root] aws_iam_user_policy.user_policy (expand)</title>
<path fill="none" stroke="black" d="M306.6,-215.7C297.21,-207.05 285.7,-196.45 275.47,-187.03"/>
<polygon fill="black" stroke="black" points="277.68,-184.3 267.95,-180.1 272.94,-189.45 277.68,-184.3"/>
</g>
<!-- [root] provider[&quot;registry.terraform.io/hashicorp/aws&quot;] (close)&#45;&gt;[root] aws_instance.ec2 (expand) -->
<g id="edge5" class="edge">
<title>[root] provider[&quot;registry.terraform.io/hashicorp/aws&quot;] (close)&#45;&gt;[root] aws_instance.ec2 (expand)</title>
<path fill="none" stroke="black" d="M348.63,-215.86C359.96,-206.42 372.94,-193.82 381.38,-180 392.96,-161.05 399.61,-136.69 403.28,-118.24"/>
<polygon fill="black" stroke="black" points="406.77,-118.62 405.11,-108.15 399.88,-117.37 406.77,-118.62"/>
</g>
<!-- [root] root -->
<g id="node6" class="node">
<title>[root] root</title>
<ellipse fill="none" stroke="black" cx="325.38" cy="-306" rx="58.49" ry="18"/>
<text text-anchor="middle" x="325.38" y="-302.3" font-family="Times,serif" font-size="14.00">[root] root</text>
</g>
<!-- [root] root&#45;&gt;[root] provider[&quot;registry.terraform.io/hashicorp/aws&quot;] (close) -->
<g id="edge6" class="edge">
<title>[root] root&#45;&gt;[root] provider[&quot;registry.terraform.io/hashicorp/aws&quot;] (close)</title>
<path fill="none" stroke="black" d="M325.38,-287.7C325.38,-279.98 325.38,-270.71 325.38,-262.11"/>
<polygon fill="black" stroke="black" points="328.88,-262.1 325.38,-252.1 321.88,-262.1 328.88,-262.1"/>
</g>
</g>
</svg>
